<?xml version="1.0" encoding="utf-8"?>
<!-- Generator: Adobe Illustrator 24.0.2, SVG Export Plug-In . SVG Version: 6.00 Build 0)  -->
<svg version="1.1" id="Capa_1" xmlns="http://www.w3.org/2000/svg" xmlns:xlink="http://www.w3.org/1999/xlink" x="0px" y="0px"
	 viewBox="0 0 80 80" style="enable-background:new 0 0 80 80;" xml:space="preserve">
<style type="text/css">
	.st0{fill:#F9C846;}
</style>
<g>
	<g>
		<g>
			<path class="st0" d="M70,47.5c-0.1-3.4-0.7-7.2-1.6-10.8c-0.9-3.4-2-6.7-3.4-9.1c-5.2-9.2-10.9-7.8-17.7-6
				c-2.2,0.5-4.5,1.1-6.9,1.3h-0.7c-2.4-0.2-4.7-0.8-6.9-1.3C26,19.9,20.3,18.4,15,27.7c-1.3,2.5-2.5,5.7-3.4,9.1
				c-0.9,3.6-1.5,7.4-1.6,10.8c-0.1,3.8,0.2,6.6,1,8.5c0.8,1.8,2,2.9,3.6,3.4c1.4,0.4,3.1,0.2,4.8-0.5c2.9-1.2,6.3-3.7,9.6-6.8
				c2.3-2.2,6.7-3.4,11-3.4s8.7,1.1,11,3.4c3.3,3.1,6.7,5.6,9.6,6.8c1.7,0.7,3.4,0.9,4.8,0.5c1.5-0.4,2.8-1.5,3.6-3.4
				C69.7,54.2,70.1,51.4,70,47.5z M66.4,55c-0.4,1-1,1.6-1.8,1.9c-0.8,0.2-1.9,0.1-3.1-0.4c-2.6-1-5.7-3.4-8.7-6.2
				C50,47.5,45,46.1,40,46.1s-10,1.4-12.9,4.1c-3.1,2.8-6.1,5.2-8.7,6.2c-1.2,0.4-2.2,0.7-3.1,0.4c-0.7-0.2-1.3-0.8-1.8-1.9
				c-0.6-1.4-0.9-3.7-0.7-7.2c0.1-3.2,0.7-6.9,1.6-10.3c0.8-3.2,1.9-6.2,3.1-8.4c4.1-7.4,8.9-6.2,14.6-4.7c2.3,0.6,4.7,1.2,7.3,1.4
				c0.1,0,0.1,0,0.1,0h0.8c0.1,0,0.1,0,0.1,0c2.7-0.2,5.1-0.8,7.4-1.4c5.7-1.4,10.5-2.7,14.6,4.7c1.3,2.2,2.3,5.2,3.1,8.4
				c0.8,3.4,1.4,7,1.6,10.3C67.4,51.1,67.1,53.5,66.4,55z"/>
		</g>
	</g>
	<g>
		<g>
			<path class="st0" d="M33.1,33c-0.7-0.7-1.6-1.2-2.7-1.3c-0.1-1-0.5-1.9-1.2-2.6L29.2,29c-0.8-0.8-1.9-1.3-3.1-1.3
				S23.8,28.3,23,29c-0.7,0.7-1.2,1.6-1.3,2.7c-1,0.1-1.9,0.5-2.7,1.2L19,33c-0.8,0.8-1.3,1.9-1.3,3.1c0,1.2,0.5,2.3,1.3,3.1
				s1.6,1.2,2.8,1.3c0.1,1,0.5,2,1.3,2.7c0.8,0.8,1.9,1.3,3.1,1.3s2.3-0.5,3.1-1.3c0.7-0.7,1.2-1.6,1.3-2.7c1-0.1,2-0.5,2.7-1.3
				c0.8-0.8,1.3-1.9,1.3-3.1C34.4,34.8,33.9,33.7,33.1,33z M31.3,37.2c-0.3,0.3-0.7,0.4-1.1,0.4h-1c-0.7,0-1.4,0.6-1.4,1.4v1
				c0,0.4-0.1,0.8-0.4,1.1c-0.3,0.3-0.7,0.4-1.1,0.4c-0.4,0-0.8-0.1-1.1-0.4c-0.3-0.3-0.4-0.7-0.4-1.1v-1c0-0.7-0.6-1.4-1.4-1.4h-1
				c-0.4,0-0.8-0.1-1.1-0.4c-0.2-0.2-0.4-0.6-0.4-1s0.1-0.8,0.4-1.1c0,0,0,0,0.1-0.1c0.3-0.2,0.7-0.4,1-0.4h1c0.7,0,1.4-0.6,1.4-1.4
				v-1c0-0.4,0.1-0.8,0.4-1.1c0.3-0.3,0.7-0.4,1.1-0.4c0.4,0,0.8,0.1,1.1,0.4c0,0,0,0,0.1,0.1c0.2,0.3,0.4,0.7,0.4,1v1
				c0,0.7,0.6,1.4,1.4,1.4h1c0.4,0,0.8,0.1,1.1,0.4c0.3,0.3,0.4,0.7,0.4,1.1C31.7,36.5,31.6,36.9,31.3,37.2z"/>
		</g>
	</g>
	<g>
		<g>
			<circle class="st0" cx="53" cy="30.7" r="2.6"/>
		</g>
	</g>
	<g>
		<g>
			<circle class="st0" cx="53" cy="41.3" r="2.6"/>
		</g>
	</g>
	<g>
		<g>
			<circle class="st0" cx="47.7" cy="36" r="2.6"/>
		</g>
	</g>
	<g>
		<g>
			<circle class="st0" cx="58.3" cy="36" r="2.6"/>
		</g>
	</g>
</g>
</svg>
