<?xml version="1.0" encoding="utf-8"?>
<!-- Generator: Adobe Illustrator 24.0.2, SVG Export Plug-In . SVG Version: 6.00 Build 0)  -->
<svg version="1.1" id="Capa_1" xmlns="http://www.w3.org/2000/svg" xmlns:xlink="http://www.w3.org/1999/xlink" x="0px" y="0px"
	 viewBox="0 0 80 80" style="enable-background:new 0 0 80 80;" xml:space="preserve">
<style type="text/css">
	.st0{fill:#F9C846;}
</style>
<g>
	<g>
		<g>
			<rect x="47" y="38.5" class="st0" width="2" height="2"/>
		</g>
	</g>
	<g>
		<g>
			<rect x="39" y="38.5" class="st0" width="2" height="2"/>
		</g>
	</g>
	<g>
		<g>
			<rect x="43" y="38.5" class="st0" width="2" height="2"/>
		</g>
	</g>
	<g>
		<g>
			<rect x="35" y="38.5" class="st0" width="2" height="2"/>
		</g>
	</g>
	<g>
		<g>
			<rect x="31" y="38.5" class="st0" width="2" height="2"/>
		</g>
	</g>
	<g>
		<g>
			<path class="st0" d="M67,34.5h-1v-4c0-1.7-1.3-3-3-3h-2c-0.4,0-0.7,0.1-1,0.2v-3.2c0-1.7-1.3-3-3-3h-2c-1.7,0-3,1.3-3,3v10H28
				v-10c0-1.7-1.3-3-3-3h-2c-1.7,0-3,1.3-3,3v3.2c-0.3-0.1-0.6-0.2-1-0.2h-2c-1.7,0-3,1.3-3,3v4h-1c-1.7,0-3,1.3-3,3v4
				c0,1.7,1.3,3,3,3h1v5c0,1.7,1.3,3,3,3h2c0.4,0,0.7-0.1,1-0.2v3.2c0,1.7,1.3,3,3,3h2c1.7,0,3-1.3,3-3v-11h24v11c0,1.7,1.3,3,3,3h2
				c1.7,0,3-1.3,3-3v-3.2c0.3,0.1,0.6,0.2,1,0.2h2c1.7,0,3-1.3,3-3v-5h1c1.7,0,3-1.3,3-3v-4C70,35.8,68.7,34.5,67,34.5z M14,42.5h-1
				c-0.6,0-1-0.4-1-1v-4c0-0.6,0.4-1,1-1h1C14,36.5,14,42.5,14,42.5z M20,49.5c0,0.6-0.4,1-1,1h-2c-0.6,0-1-0.4-1-1v-6v-8v-5
				c0-0.6,0.4-1,1-1h2c0.6,0,1,0.4,1,1V49.5z M26,55.5c0,0.6-0.4,1-1,1h-2c-0.6,0-1-0.4-1-1v-6v-19v-6c0-0.6,0.4-1,1-1h2
				c0.6,0,1,0.4,1,1V55.5z M52,42.5H28v-6h24L52,42.5L52,42.5z M58,30.5v19v6c0,0.6-0.4,1-1,1h-2c-0.6,0-1-0.4-1-1v-31
				c0-0.6,0.4-1,1-1h2c0.6,0,1,0.4,1,1L58,30.5L58,30.5z M64,35.5v8v6c0,0.6-0.4,1-1,1h-2c-0.6,0-1-0.4-1-1v-19c0-0.6,0.4-1,1-1h2
				c0.6,0,1,0.4,1,1V35.5z M68,41.5c0,0.6-0.4,1-1,1h-1v-6h1c0.6,0,1,0.4,1,1V41.5z"/>
		</g>
	</g>
</g>
</svg>
