<?xml version="1.0" encoding="utf-8"?>
<!-- Generator: Adobe Illustrator 24.0.2, SVG Export Plug-In . SVG Version: 6.00 Build 0)  -->
<svg version="1.1" id="Capa_1" xmlns="http://www.w3.org/2000/svg" xmlns:xlink="http://www.w3.org/1999/xlink" x="0px" y="0px"
	 viewBox="0 0 80 80" style="enable-background:new 0 0 80 80;" xml:space="preserve">
<style type="text/css">
	.st0{fill:#F9C846;}
</style>
<g>
	<path class="st0" d="M60.6,15.1H19.5c-2.4,0-4.4,2-4.4,4.4v40.9c0,2.4,2,4.4,4.4,4.4h41.2c2.4,0,4.4-2,4.4-4.4V19.5
		C65,17.1,63,15.1,60.6,15.1z M19.5,18h41.2c0.8,0,1.5,0.7,1.5,1.5v7.3H18v-7.3C18,18.7,18.6,18,19.5,18z M60.6,62H19.5
		c-0.8,0-1.5-0.7-1.5-1.5V29.8h44.1v30.7C62.1,61.3,61.4,62,60.6,62z"/>
	<path class="st0" d="M45,34.3c-0.7-0.3-1.6,0-1.9,0.7l-8.8,20.5c-0.3,0.7,0,1.6,0.7,1.9c0.7,0.3,1.6,0,1.9-0.7l8.7-20.5
		C46.1,35.4,45.7,34.6,45,34.3L45,34.3z"/>
	<path class="st0" d="M32.4,39.1c-0.5-0.7-1.4-0.7-2.1-0.2L23,44.7c-0.7,0.6-0.7,1.7,0,2.2l7.3,5.8c0.7,0.5,1.6,0.4,2.1-0.2
		c0.5-0.7,0.4-1.6-0.2-2.1l-5.8-4.6l5.9-4.7C32.8,40.7,32.9,39.8,32.4,39.1L32.4,39.1z"/>
	<path class="st0" d="M57,44.7l-7.3-5.8c-0.7-0.5-1.6-0.4-2.1,0.2c-0.5,0.7-0.4,1.6,0.2,2.1l5.9,4.7l-5.9,4.7
		c-0.7,0.5-0.7,1.4-0.2,2.1c0.5,0.7,1.4,0.7,2.1,0.2l7.3-5.8C57.7,46.4,57.7,45.3,57,44.7z"/>
	<circle class="st0" cx="22.5" cy="22.4" r="1.5"/>
	<circle class="st0" cx="28.3" cy="22.4" r="1.5"/>
	<circle class="st0" cx="34.2" cy="22.4" r="1.5"/>
	<path class="st0" d="M48.7,23.9h8.7c0.8,0,1.5-0.7,1.5-1.5c0-0.8-0.7-1.5-1.5-1.5h-8.7c-0.8,0-1.5,0.7-1.5,1.5
		C47.3,23.3,48,23.9,48.7,23.9z"/>
</g>
</svg>
